<svg width="1389" height="1106" viewBox="0 0 1389 1106" fill="none" xmlns="http://www.w3.org/2000/svg">
<mask id="path-1-inside-1_0_1" fill="white">
<path d="M1272 553C1272 858.413 1021.73 1106 713 1106C404.273 1106 154 858.413 154 553C154 247.587 404.273 0 713 0C1021.73 0 1272 247.587 1272 553ZM275.524 553C275.524 792.018 471.389 985.78 713 985.78C954.611 985.78 1150.48 792.018 1150.48 553C1150.48 313.982 954.611 120.22 713 120.22C471.389 120.22 275.524 313.982 275.524 553Z"/>
</mask>
<path d="M1272 553C1272 858.413 1021.73 1106 713 1106C404.273 1106 154 858.413 154 553C154 247.587 404.273 0 713 0C1021.73 0 1272 247.587 1272 553ZM275.524 553C275.524 792.018 471.389 985.78 713 985.78C954.611 985.78 1150.48 792.018 1150.48 553C1150.48 313.982 954.611 120.22 713 120.22C471.389 120.22 275.524 313.982 275.524 553Z" fill="#F6FF95" stroke="black" stroke-width="10" mask="url(#path-1-inside-1_0_1)"/>
<path d="M694.635 259.743L1382.65 554.199L695.337 850.291L7.3253 555.835L694.635 259.743Z" fill="#E03131" stroke="black" stroke-width="5"/>
<path d="M214.79 603.87C204.703 603.87 196.713 602.057 190.82 598.43C184.927 594.803 180.677 589.647 178.07 582.96C175.577 576.16 174.33 568.057 174.33 558.65V507.31C174.33 497.903 175.577 489.857 178.07 483.17C180.677 476.483 184.927 471.383 190.82 467.87C196.713 464.357 204.703 462.6 214.79 462.6C224.99 462.6 233.037 464.413 238.93 468.04C244.937 471.553 249.187 476.653 251.68 483.34C254.287 489.913 255.59 497.903 255.59 507.31V558.65C255.59 568.057 254.287 576.16 251.68 582.96C249.187 589.647 244.937 594.803 238.93 598.43C233.037 602.057 224.99 603.87 214.79 603.87ZM214.79 583.64C218.417 583.64 221.08 582.847 222.78 581.26C224.48 579.56 225.613 577.35 226.18 574.63C226.747 571.797 227.03 568.793 227.03 565.62V500.51C227.03 497.337 226.747 494.39 226.18 491.67C225.613 488.95 224.48 486.797 222.78 485.21C221.08 483.51 218.417 482.66 214.79 482.66C211.39 482.66 208.84 483.51 207.14 485.21C205.44 486.797 204.307 488.95 203.74 491.67C203.173 494.39 202.89 497.337 202.89 500.51V565.62C202.89 568.793 203.117 571.797 203.57 574.63C204.137 577.35 205.27 579.56 206.97 581.26C208.67 582.847 211.277 583.64 214.79 583.64ZM274.319 602V464.3H309.169C315.176 464.3 320.729 464.81 325.829 465.83C330.929 466.85 335.406 468.663 339.259 471.27C343.226 473.877 346.229 477.503 348.269 482.15C350.423 486.683 351.499 492.633 351.499 500C351.499 505.553 350.706 510.313 349.119 514.28C347.533 518.133 345.266 521.193 342.319 523.46C339.373 525.727 335.746 527.257 331.439 528.05C336.766 528.843 341.243 530.657 344.869 533.49C348.496 536.323 351.216 540.063 353.029 544.71C354.843 549.357 355.749 554.967 355.749 561.54C355.749 568.453 354.843 574.46 353.029 579.56C351.329 584.66 348.779 588.853 345.379 592.14C341.979 595.427 337.786 597.92 332.799 599.62C327.813 601.207 322.033 602 315.459 602H274.319ZM302.369 582.28H310.189C317.216 582.28 322.033 580.523 324.639 577.01C327.359 573.497 328.719 568.227 328.719 561.2C328.719 555.76 328.096 551.453 326.849 548.28C325.603 544.993 323.563 542.613 320.729 541.14C318.009 539.553 314.326 538.76 309.679 538.76H302.369V582.28ZM302.369 519.89H309.339C314.213 519.89 317.896 519.21 320.389 517.85C322.883 516.377 324.583 514.223 325.489 511.39C326.509 508.443 327.019 504.873 327.019 500.68C327.019 496.487 326.283 493.143 324.809 490.65C323.449 488.043 321.296 486.173 318.349 485.04C315.516 483.907 311.889 483.34 307.469 483.34H302.369V519.89ZM371.936 602V464.3H431.946V483.68H399.986V520.23H424.636V539.78H399.986V582.96H432.286V602H371.936ZM482.177 603.87C473.677 603.87 466.594 602.34 460.927 599.28C455.261 596.107 450.954 591.403 448.007 585.17C445.174 578.823 443.531 570.777 443.077 561.03L467.217 556.95C467.444 562.617 468.011 567.377 468.917 571.23C469.937 574.97 471.411 577.803 473.337 579.73C475.377 581.543 477.871 582.45 480.817 582.45C484.444 582.45 486.881 581.317 488.127 579.05C489.487 576.783 490.167 574.177 490.167 571.23C490.167 565.45 488.751 560.633 485.917 556.78C483.197 552.813 479.571 548.847 475.037 544.88L460.757 532.47C455.657 528.163 451.464 523.29 448.177 517.85C445.004 512.41 443.417 505.723 443.417 497.79C443.417 486.457 446.704 477.787 453.277 471.78C459.964 465.66 469.087 462.6 480.647 462.6C487.561 462.6 493.227 463.733 497.647 466C502.067 468.267 505.467 471.327 507.847 475.18C510.341 478.92 512.041 483.057 512.947 487.59C513.967 492.01 514.591 496.43 514.817 500.85L490.847 504.42C490.621 500.227 490.224 496.543 489.657 493.37C489.204 490.197 488.184 487.703 486.597 485.89C485.124 484.077 482.857 483.17 479.797 483.17C476.511 483.17 474.074 484.417 472.487 486.91C470.901 489.29 470.107 491.953 470.107 494.9C470.107 499.773 471.184 503.797 473.337 506.97C475.604 510.03 478.664 513.26 482.517 516.66L496.457 528.9C502.237 533.887 507.167 539.61 511.247 546.07C515.441 552.417 517.537 560.293 517.537 569.7C517.537 576.16 516.064 581.997 513.117 587.21C510.171 592.423 506.034 596.503 500.707 599.45C495.494 602.397 489.317 603.87 482.177 603.87ZM532.308 602V464.3H592.318V483.68H560.358V520.23H585.008V539.78H560.358V582.96H592.658V602H532.308ZM606.849 602V464.3H641.699C647.705 464.3 653.259 464.81 658.359 465.83C663.459 466.85 667.935 468.663 671.789 471.27C675.755 473.877 678.759 477.503 680.799 482.15C682.952 486.683 684.029 492.633 684.029 500C684.029 505.553 683.235 510.313 681.649 514.28C680.062 518.133 677.795 521.193 674.849 523.46C671.902 525.727 668.275 527.257 663.969 528.05C669.295 528.843 673.772 530.657 677.399 533.49C681.025 536.323 683.745 540.063 685.559 544.71C687.372 549.357 688.279 554.967 688.279 561.54C688.279 568.453 687.372 574.46 685.559 579.56C683.859 584.66 681.309 588.853 677.909 592.14C674.509 595.427 670.315 597.92 665.329 599.62C660.342 601.207 654.562 602 647.989 602H606.849ZM634.899 582.28H642.719C649.745 582.28 654.562 580.523 657.169 577.01C659.889 573.497 661.249 568.227 661.249 561.2C661.249 555.76 660.625 551.453 659.379 548.28C658.132 544.993 656.092 542.613 653.259 541.14C650.539 539.553 646.855 538.76 642.209 538.76H634.899V582.28ZM634.899 519.89H641.869C646.742 519.89 650.425 519.21 652.919 517.85C655.412 516.377 657.112 514.223 658.019 511.39C659.039 508.443 659.549 504.873 659.549 500.68C659.549 496.487 658.812 493.143 657.339 490.65C655.979 488.043 653.825 486.173 650.879 485.04C648.045 483.907 644.419 483.34 639.999 483.34H634.899V519.89ZM743.226 603.87C732.799 603.87 724.696 602.113 718.916 598.6C713.136 594.973 709.056 589.817 706.676 583.13C704.409 576.33 703.276 568.113 703.276 558.48V464.3H730.986V562.39C730.986 565.79 731.212 569.133 731.666 572.42C732.232 575.707 733.366 578.37 735.066 580.41C736.879 582.45 739.599 583.47 743.226 583.47C746.966 583.47 749.686 582.45 751.386 580.41C753.199 578.37 754.332 575.707 754.786 572.42C755.239 569.133 755.466 565.79 755.466 562.39V464.3H783.176V558.48C783.176 568.113 781.986 576.33 779.606 583.13C777.339 589.817 773.316 594.973 767.536 598.6C761.756 602.113 753.652 603.87 743.226 603.87ZM802.747 602V464.3H838.447C847.74 464.3 855.674 465.377 862.247 467.53C868.934 469.57 874.034 473.253 877.547 478.58C881.174 483.907 882.987 491.273 882.987 500.68C882.987 506.347 882.477 511.39 881.457 515.81C880.55 520.117 878.85 523.913 876.357 527.2C873.977 530.373 870.577 532.923 866.157 534.85L885.197 602H856.467L840.657 539.61H830.797V602H802.747ZM830.797 522.95H838.957C843.49 522.95 847.06 522.213 849.667 520.74C852.274 519.267 854.087 517.057 855.107 514.11C856.24 511.05 856.807 507.31 856.807 502.89C856.807 496.543 855.617 491.727 853.237 488.44C850.97 485.04 846.664 483.34 840.317 483.34H830.797V522.95ZM936.052 604.04C926.759 604.04 919.392 602.113 913.952 598.26C908.512 594.293 904.602 588.74 902.222 581.6C899.956 574.347 898.822 565.96 898.822 556.44V510.37C898.822 500.51 900.012 492.01 902.392 484.87C904.772 477.73 908.909 472.233 914.802 468.38C920.809 464.527 928.912 462.6 939.112 462.6C948.972 462.6 956.736 464.243 962.402 467.53C968.182 470.817 972.319 475.463 974.812 481.47C977.306 487.477 978.552 494.617 978.552 502.89V510.88H951.182V501.19C951.182 497.563 950.956 494.39 950.502 491.67C950.049 488.837 948.972 486.627 947.272 485.04C945.686 483.453 943.079 482.66 939.452 482.66C935.712 482.66 932.992 483.623 931.292 485.55C929.592 487.477 928.516 489.97 928.062 493.03C927.609 495.977 927.382 499.15 927.382 502.55V563.58C927.382 567.433 927.722 570.89 928.402 573.95C929.082 577.01 930.329 579.39 932.142 581.09C934.069 582.79 936.789 583.64 940.302 583.64C943.816 583.64 946.536 582.733 948.462 580.92C950.389 579.107 951.692 576.67 952.372 573.61C953.166 570.437 953.562 566.867 953.562 562.9V548.28H940.132V531.28H978.892V602H960.532L958.832 589.59C957.019 593.783 954.299 597.24 950.672 599.96C947.046 602.68 942.172 604.04 936.052 604.04ZM1036.91 603.87C1026.48 603.87 1018.38 602.113 1012.6 598.6C1006.82 594.973 1002.74 589.817 1000.36 583.13C998.091 576.33 996.957 568.113 996.957 558.48V464.3H1024.67V562.39C1024.67 565.79 1024.89 569.133 1025.35 572.42C1025.91 575.707 1027.05 578.37 1028.75 580.41C1030.56 582.45 1033.28 583.47 1036.91 583.47C1040.65 583.47 1043.37 582.45 1045.07 580.41C1046.88 578.37 1048.01 575.707 1048.47 572.42C1048.92 569.133 1049.15 565.79 1049.15 562.39V464.3H1076.86V558.48C1076.86 568.113 1075.67 576.33 1073.29 583.13C1071.02 589.817 1067 594.973 1061.22 598.6C1055.44 602.113 1047.33 603.87 1036.91 603.87ZM1096.43 602V464.3H1156.44V483.68H1124.48V520.23H1149.13V539.78H1124.48V582.96H1156.78V602H1096.43ZM1170.97 602V464.3H1206.67C1215.96 464.3 1223.9 465.377 1230.47 467.53C1237.16 469.57 1242.26 473.253 1245.77 478.58C1249.4 483.907 1251.21 491.273 1251.21 500.68C1251.21 506.347 1250.7 511.39 1249.68 515.81C1248.77 520.117 1247.07 523.913 1244.58 527.2C1242.2 530.373 1238.8 532.923 1234.38 534.85L1253.42 602H1224.69L1208.88 539.61H1199.02V602H1170.97ZM1199.02 522.95H1207.18C1211.71 522.95 1215.28 522.213 1217.89 520.74C1220.5 519.267 1222.31 517.057 1223.33 514.11C1224.46 511.05 1225.03 507.31 1225.03 502.89C1225.03 496.543 1223.84 491.727 1221.46 488.44C1219.19 485.04 1214.89 483.34 1208.54 483.34H1199.02V522.95Z" fill="#F6FF95"/>
<path d="M190.82 598.43L192.916 595.023L192.916 595.023L190.82 598.43ZM178.07 582.96L174.314 584.337L174.328 584.375L174.343 584.413L178.07 582.96ZM178.07 483.17L174.343 481.717L174.332 481.745L174.322 481.772L178.07 483.17ZM190.82 467.87L192.868 471.306L192.868 471.306L190.82 467.87ZM238.93 468.04L236.834 471.447L236.872 471.47L236.91 471.493L238.93 468.04ZM251.68 483.34L247.932 484.738L247.946 484.776L247.962 484.815L251.68 483.34ZM251.68 582.96L247.945 581.528L247.938 581.545L247.932 581.562L251.68 582.96ZM238.93 598.43L236.863 595.006L236.848 595.014L236.834 595.023L238.93 598.43ZM222.78 581.26L225.509 584.184L225.56 584.137L225.608 584.088L222.78 581.26ZM226.18 574.63L230.096 575.446L230.099 575.43L230.102 575.414L226.18 574.63ZM226.18 491.67L222.264 492.486L222.264 492.486L226.18 491.67ZM222.78 485.21L219.952 488.038L220 488.087L220.051 488.134L222.78 485.21ZM207.14 485.21L209.869 488.134L209.92 488.087L209.968 488.038L207.14 485.21ZM203.74 491.67L207.656 492.486L207.656 492.486L203.74 491.67ZM203.57 574.63L199.62 575.262L199.635 575.354L199.654 575.446L203.57 574.63ZM206.97 581.26L204.142 584.088L204.19 584.137L204.241 584.184L206.97 581.26ZM214.79 599.87C205.125 599.87 197.954 598.123 192.916 595.023L188.724 601.837C195.473 605.99 204.282 607.87 214.79 607.87V599.87ZM192.916 595.023C187.794 591.871 184.1 587.415 181.797 581.507L174.343 584.413C177.254 591.879 182.06 597.736 188.724 601.837L192.916 595.023ZM181.826 581.583C179.534 575.334 178.33 567.72 178.33 558.65H170.33C170.33 568.393 171.619 576.986 174.314 584.337L181.826 581.583ZM178.33 558.65V507.31H170.33V558.65H178.33ZM178.33 507.31C178.33 498.237 179.535 490.69 181.818 484.568L174.322 481.772C171.618 489.023 170.33 497.569 170.33 507.31H178.33ZM181.797 484.623C184.096 478.724 187.776 474.341 192.868 471.306L188.772 464.434C182.077 468.425 177.257 474.242 174.343 481.717L181.797 484.623ZM192.868 471.306C197.917 468.296 205.107 466.6 214.79 466.6V458.6C204.299 458.6 195.51 460.417 188.772 464.434L192.868 471.306ZM214.79 466.6C224.579 466.6 231.802 468.35 236.834 471.447L241.026 464.633C234.271 460.476 225.401 458.6 214.79 458.6V466.6ZM236.91 471.493C242.1 474.528 245.752 478.891 247.932 484.738L255.428 481.942C252.621 474.416 247.774 468.579 240.95 464.587L236.91 471.493ZM247.962 484.815C250.332 490.792 251.59 498.251 251.59 507.31H259.59C259.59 497.556 258.241 489.035 255.398 481.865L247.962 484.815ZM251.59 507.31V558.65H259.59V507.31H251.59ZM251.59 558.65C251.59 567.703 250.334 575.297 247.945 581.528L255.415 584.392C258.24 577.023 259.59 568.41 259.59 558.65H251.59ZM247.932 581.562C245.748 587.419 242.082 591.854 236.863 595.006L240.997 601.854C247.791 597.752 252.625 591.874 255.428 584.358L247.932 581.562ZM236.834 595.023C231.802 598.12 224.579 599.87 214.79 599.87V607.87C225.401 607.87 234.271 605.994 241.026 601.837L236.834 595.023ZM214.79 587.64C218.884 587.64 222.748 586.761 225.509 584.184L220.051 578.336C219.412 578.932 217.949 579.64 214.79 579.64V587.64ZM225.608 584.088C227.941 581.756 229.396 578.807 230.096 575.446L222.264 573.814C221.831 575.893 221.019 577.364 219.952 578.432L225.608 584.088ZM230.102 575.414C230.725 572.299 231.03 569.031 231.03 565.62H223.03C223.03 568.555 222.768 571.294 222.258 573.846L230.102 575.414ZM231.03 565.62V500.51H223.03V565.62H231.03ZM231.03 500.51C231.03 497.1 230.726 493.877 230.096 490.854L222.264 492.486C222.768 494.903 223.03 497.573 223.03 500.51H231.03ZM230.096 490.854C229.394 487.487 227.923 484.539 225.509 482.286L220.051 488.134C221.037 489.055 221.832 490.413 222.264 492.486L230.096 490.854ZM225.608 482.382C222.851 479.624 218.946 478.66 214.79 478.66V486.66C217.888 486.66 219.309 487.396 219.952 488.038L225.608 482.382ZM214.79 478.66C210.773 478.66 207.026 479.667 204.312 482.382L209.968 488.038C210.654 487.353 212.007 486.66 214.79 486.66V478.66ZM204.411 482.286C201.997 484.539 200.526 487.487 199.824 490.854L207.656 492.486C208.088 490.413 208.883 489.055 209.869 488.134L204.411 482.286ZM199.824 490.854C199.194 493.877 198.89 497.1 198.89 500.51H206.89C206.89 497.573 207.152 494.903 207.656 492.486L199.824 490.854ZM198.89 500.51V565.62H206.89V500.51H198.89ZM198.89 565.62C198.89 568.983 199.13 572.199 199.62 575.262L207.52 573.998C207.103 571.394 206.89 568.604 206.89 565.62H198.89ZM199.654 575.446C200.354 578.807 201.809 581.756 204.142 584.088L209.798 578.432C208.731 577.364 207.919 575.893 207.486 573.814L199.654 575.446ZM204.241 584.184C206.982 586.743 210.768 587.64 214.79 587.64V579.64C211.785 579.64 210.358 578.95 209.699 578.336L204.241 584.184ZM274.319 602H270.319V606H274.319V602ZM274.319 464.3V460.3H270.319V464.3H274.319ZM325.829 465.83L326.614 461.908L326.614 461.908L325.829 465.83ZM339.259 471.27L337.018 474.583L337.04 474.598L337.063 474.613L339.259 471.27ZM348.269 482.15L344.607 483.758L344.631 483.812L344.656 483.866L348.269 482.15ZM349.119 514.28L352.818 515.803L352.826 515.784L352.833 515.766L349.119 514.28ZM342.319 523.46L344.758 526.63L344.758 526.63L342.319 523.46ZM331.439 528.05L330.715 524.116L330.85 532.006L331.439 528.05ZM344.869 533.49L342.407 536.642L342.407 536.642L344.869 533.49ZM353.029 544.71L356.756 543.256L356.756 543.256L353.029 544.71ZM353.029 579.56L349.26 578.22L349.247 578.257L349.234 578.295L353.029 579.56ZM345.379 592.14L348.159 595.016L348.159 595.016L345.379 592.14ZM332.799 599.62L334.012 603.432L334.051 603.419L334.09 603.406L332.799 599.62ZM302.369 582.28H298.369V586.28H302.369V582.28ZM324.639 577.01L321.476 574.561L321.451 574.594L321.427 574.627L324.639 577.01ZM326.849 548.28L323.109 549.699L323.118 549.721L323.126 549.743L326.849 548.28ZM320.729 541.14L318.714 544.595L318.798 544.644L318.884 544.689L320.729 541.14ZM302.369 538.76V534.76H298.369V538.76H302.369ZM302.369 519.89H298.369V523.89H302.369V519.89ZM320.389 517.85L322.305 521.362L322.365 521.329L322.424 521.294L320.389 517.85ZM325.489 511.39L321.709 510.082L321.694 510.126L321.68 510.171L325.489 511.39ZM324.809 490.65L321.263 492.5L321.312 492.594L321.366 492.685L324.809 490.65ZM318.349 485.04L316.864 488.754L316.888 488.764L316.913 488.773L318.349 485.04ZM302.369 483.34V479.34H298.369V483.34H302.369ZM278.319 602V464.3H270.319V602H278.319ZM274.319 468.3H309.169V460.3H274.319V468.3ZM309.169 468.3C314.952 468.3 320.239 468.791 325.045 469.752L326.614 461.908C321.219 460.829 315.4 460.3 309.169 460.3V468.3ZM325.045 469.752C329.685 470.68 333.654 472.308 337.018 474.583L341.5 467.957C337.158 465.019 332.173 463.02 326.614 461.908L325.045 469.752ZM337.063 474.613C340.338 476.765 342.855 479.768 344.607 483.758L351.932 480.542C349.604 475.239 346.114 470.988 341.456 467.927L337.063 474.613ZM344.656 483.866C346.464 487.672 347.499 492.971 347.499 500H355.499C355.499 492.295 354.381 485.694 351.882 480.434L344.656 483.866ZM347.499 500C347.499 505.19 346.756 509.419 345.405 512.794L352.833 515.766C354.656 511.208 355.499 505.917 355.499 500H347.499ZM345.421 512.757C344.069 516.04 342.204 518.502 339.88 520.29L344.758 526.63C348.327 523.885 350.997 520.226 352.818 515.803L345.421 512.757ZM339.88 520.29C337.519 522.106 334.508 523.417 330.715 524.116L332.164 531.984C336.984 531.096 341.226 529.347 344.758 526.63L339.88 520.29ZM330.85 532.006C335.61 532.715 339.411 534.302 342.407 536.642L347.332 530.338C343.074 527.012 337.921 524.971 332.028 524.094L330.85 532.006ZM342.407 536.642C345.42 538.996 347.728 542.129 349.303 546.164L356.756 543.256C354.704 537.998 351.572 533.65 347.332 530.338L342.407 536.642ZM349.303 546.164C350.888 550.226 351.749 555.315 351.749 561.54H359.749C359.749 554.619 358.797 548.487 356.756 543.256L349.303 546.164ZM351.749 561.54C351.749 568.117 350.885 573.651 349.26 578.22L356.798 580.9C358.8 575.269 359.749 568.789 359.749 561.54H351.749ZM349.234 578.295C347.71 582.869 345.476 586.483 342.599 589.264L348.159 595.016C352.082 591.224 354.948 586.451 356.824 580.825L349.234 578.295ZM342.599 589.264C339.669 592.097 336.002 594.302 331.509 595.834L334.09 603.406C339.57 601.538 344.29 598.757 348.159 595.016L342.599 589.264ZM331.586 595.808C327.077 597.243 321.722 598 315.459 598V606C322.344 606 328.548 605.17 334.012 603.432L331.586 595.808ZM315.459 598H274.319V606H315.459V598ZM302.369 586.28H310.189V578.28H302.369V586.28ZM310.189 586.28C317.708 586.28 324.125 584.417 327.852 579.393L321.427 574.627C319.94 576.63 316.724 578.28 310.189 578.28V586.28ZM327.802 579.459C331.3 574.941 332.719 568.632 332.719 561.2H324.719C324.719 567.822 323.419 572.053 321.476 574.561L327.802 579.459ZM332.719 561.2C332.719 555.522 332.078 550.651 330.572 546.817L323.126 549.743C324.114 552.256 324.719 555.998 324.719 561.2H332.719ZM330.589 546.861C329.032 542.756 326.37 539.565 322.575 537.591L318.884 544.689C320.755 545.662 322.173 547.231 323.109 549.699L330.589 546.861ZM322.745 537.685C319.189 535.611 314.72 534.76 309.679 534.76V542.76C313.932 542.76 316.829 543.496 318.714 544.595L322.745 537.685ZM309.679 534.76H302.369V542.76H309.679V534.76ZM298.369 538.76V582.28H306.369V538.76H298.369ZM302.369 523.89H309.339V515.89H302.369V523.89ZM309.339 523.89C314.464 523.89 318.942 523.196 322.305 521.362L318.474 514.338C316.849 515.224 313.961 515.89 309.339 515.89V523.89ZM322.424 521.294C325.787 519.307 328.102 516.349 329.299 512.609L321.68 510.171C321.063 512.098 319.978 513.447 318.354 514.406L322.424 521.294ZM329.269 512.698C330.475 509.214 331.019 505.175 331.019 500.68H323.019C323.019 504.572 322.543 507.673 321.709 510.082L329.269 512.698ZM331.019 500.68C331.019 496.072 330.218 491.941 328.253 488.615L321.366 492.685C322.347 494.346 323.019 496.901 323.019 500.68H331.019ZM328.356 488.8C326.51 485.263 323.568 482.762 319.785 481.307L316.913 488.773C319.023 489.585 320.388 490.824 321.263 492.5L328.356 488.8ZM319.835 481.326C316.367 479.939 312.189 479.34 307.469 479.34V487.34C311.589 487.34 314.664 487.874 316.864 488.754L319.835 481.326ZM307.469 479.34H302.369V487.34H307.469V479.34ZM298.369 483.34V519.89H306.369V483.34H298.369ZM371.936 602H367.936V606H371.936V602ZM371.936 464.3V460.3H367.936V464.3H371.936ZM431.946 464.3H435.946V460.3H431.946V464.3ZM431.946 483.68V487.68H435.946V483.68H431.946ZM399.986 483.68V479.68H395.986V483.68H399.986ZM399.986 520.23H395.986V524.23H399.986V520.23ZM424.636 520.23H428.636V516.23H424.636V520.23ZM424.636 539.78V543.78H428.636V539.78H424.636ZM399.986 539.78V535.78H395.986V539.78H399.986ZM399.986 582.96H395.986V586.96H399.986V582.96ZM432.286 582.96H436.286V578.96H432.286V582.96ZM432.286 602V606H436.286V602H432.286ZM375.936 602V464.3H367.936V602H375.936ZM371.936 468.3H431.946V460.3H371.936V468.3ZM427.946 464.3V483.68H435.946V464.3H427.946ZM431.946 479.68H399.986V487.68H431.946V479.68ZM395.986 483.68V520.23H403.986V483.68H395.986ZM399.986 524.23H424.636V516.23H399.986V524.23ZM420.636 520.23V539.78H428.636V520.23H420.636ZM424.636 535.78H399.986V543.78H424.636V535.78ZM395.986 539.78V582.96H403.986V539.78H395.986ZM399.986 586.96H432.286V578.96H399.986V586.96ZM428.286 582.96V602H436.286V582.96H428.286ZM432.286 598H371.936V606H432.286V598ZM460.927 599.28L458.973 602.77L459 602.785L459.027 602.8L460.927 599.28ZM448.007 585.17L444.355 586.801L444.373 586.84L444.391 586.88L448.007 585.17ZM443.077 561.03L442.411 557.086L438.917 557.676L439.082 561.216L443.077 561.03ZM467.217 556.95L471.214 556.79L471.033 552.248L466.551 553.006L467.217 556.95ZM468.917 571.23L465.024 572.146L465.04 572.215L465.058 572.282L468.917 571.23ZM473.337 579.73L470.509 582.558L470.592 582.642L470.68 582.72L473.337 579.73ZM488.127 579.05L484.697 576.992L484.659 577.056L484.623 577.122L488.127 579.05ZM485.917 556.78L482.619 559.042L482.656 559.096L482.695 559.15L485.917 556.78ZM475.037 544.88L477.671 541.87L477.661 541.861L475.037 544.88ZM460.757 532.47L463.381 529.451L463.36 529.432L463.338 529.414L460.757 532.47ZM448.177 517.85L444.722 519.865L444.738 519.892L444.754 519.918L448.177 517.85ZM453.277 471.78L455.976 474.733L455.978 474.731L453.277 471.78ZM497.647 466L495.822 469.559L495.822 469.559L497.647 466ZM507.847 475.18L504.444 477.282L504.481 477.341L504.519 477.399L507.847 475.18ZM512.947 487.59L509.025 488.374L509.037 488.432L509.05 488.489L512.947 487.59ZM514.817 500.85L515.407 504.806L518.998 504.271L518.812 500.645L514.817 500.85ZM490.847 504.42L486.853 504.636L487.09 509.024L491.437 508.376L490.847 504.42ZM489.657 493.37L485.698 493.936L485.707 494.005L485.72 494.073L489.657 493.37ZM486.597 485.89L483.493 488.412L483.539 488.469L483.587 488.524L486.597 485.89ZM472.487 486.91L475.816 489.129L475.839 489.093L475.862 489.057L472.487 486.91ZM473.337 506.97L470.028 509.216L470.074 509.284L470.123 509.351L473.337 506.97ZM482.517 516.66L479.871 519.659L479.878 519.666L482.517 516.66ZM496.457 528.9L493.818 531.906L493.831 531.917L493.844 531.929L496.457 528.9ZM511.247 546.07L507.865 548.206L507.887 548.241L507.91 548.275L511.247 546.07ZM513.117 587.21L509.635 585.242L509.635 585.242L513.117 587.21ZM500.707 599.45L498.771 595.95L498.755 595.959L498.739 595.968L500.707 599.45ZM482.177 599.87C474.136 599.87 467.754 598.42 462.828 595.76L459.027 602.8C465.434 606.26 473.219 607.87 482.177 607.87V599.87ZM462.882 595.79C457.987 593.049 454.238 588.991 451.624 583.46L444.391 586.88C447.67 593.816 452.535 599.165 458.973 602.77L462.882 595.79ZM451.66 583.539C449.094 577.793 447.512 570.278 447.073 560.844L439.082 561.216C439.55 571.275 441.254 579.854 444.355 586.801L451.66 583.539ZM443.744 564.974L467.884 560.894L466.551 553.006L442.411 557.086L443.744 564.974ZM463.221 557.11C463.454 562.932 464.04 567.964 465.024 572.146L472.811 570.314C471.982 566.79 471.435 562.301 471.214 556.79L463.221 557.11ZM465.058 572.282C466.188 576.426 467.925 579.975 470.509 582.558L476.166 576.902C474.896 575.632 473.686 573.514 472.776 570.178L465.058 572.282ZM470.68 582.72C473.513 585.238 476.976 586.45 480.817 586.45V578.45C478.766 578.45 477.242 577.849 475.995 576.74L470.68 582.72ZM480.817 586.45C485.242 586.45 489.413 585.012 491.632 580.978L484.623 577.122C484.348 577.621 483.646 578.45 480.817 578.45V586.45ZM491.557 581.108C493.332 578.15 494.167 574.816 494.167 571.23H486.167C486.167 573.537 485.643 575.416 484.697 576.992L491.557 581.108ZM494.167 571.23C494.167 564.779 492.576 559.084 489.14 554.41L482.695 559.15C484.925 562.183 486.167 566.121 486.167 571.23H494.167ZM489.216 554.518C486.266 550.216 482.396 546.004 477.671 541.87L472.403 547.89C476.745 551.689 480.128 555.411 482.619 559.042L489.216 554.518ZM477.661 541.861L463.381 529.451L458.134 535.489L472.414 547.899L477.661 541.861ZM463.338 529.414C458.554 525.374 454.651 520.83 451.601 515.782L444.754 519.918C448.277 525.75 452.761 530.953 458.177 535.526L463.338 529.414ZM451.633 515.835C448.898 511.146 447.417 505.197 447.417 497.79H439.417C439.417 506.25 441.111 513.674 444.722 519.865L451.633 515.835ZM447.417 497.79C447.417 487.254 450.445 479.786 455.976 474.733L450.579 468.827C442.963 475.787 439.417 485.66 439.417 497.79H447.417ZM455.978 474.731C461.741 469.456 469.802 466.6 480.647 466.6V458.6C468.373 458.6 458.187 461.864 450.577 468.829L455.978 474.731ZM480.647 466.6C487.161 466.6 492.144 467.673 495.822 469.559L499.473 462.441C494.311 459.794 487.961 458.6 480.647 458.6V466.6ZM495.822 469.559C499.658 471.526 502.484 474.108 504.444 477.282L511.251 473.078C508.451 468.545 504.477 465.007 499.473 462.441L495.822 469.559ZM504.519 477.399C506.714 480.692 508.218 484.339 509.025 488.374L516.87 486.806C515.864 481.775 513.967 477.148 511.176 472.961L504.519 477.399ZM509.05 488.489C510.019 492.687 510.608 496.875 510.823 501.055L518.812 500.645C518.573 495.985 517.916 491.333 516.845 486.691L509.05 488.489ZM514.228 496.894L490.258 500.464L491.437 508.376L515.407 504.806L514.228 496.894ZM494.842 504.204C494.609 499.893 494.198 496.041 493.595 492.667L485.72 494.073C486.251 497.046 486.633 500.56 486.853 504.636L494.842 504.204ZM493.617 492.804C493.09 489.112 491.848 485.816 489.608 483.256L483.587 488.524C484.521 489.591 485.318 491.281 485.698 493.936L493.617 492.804ZM489.702 483.368C487.248 480.347 483.661 479.17 479.797 479.17V487.17C482.054 487.17 483.001 487.806 483.493 488.412L489.702 483.368ZM479.797 479.17C475.325 479.17 471.526 480.97 469.113 484.762L475.862 489.057C476.622 487.863 477.696 487.17 479.797 487.17V479.17ZM469.159 484.691C467.121 487.749 466.107 491.189 466.107 494.9H474.107C474.107 492.718 474.681 490.831 475.816 489.129L469.159 484.691ZM466.107 494.9C466.107 500.358 467.317 505.221 470.028 509.216L476.647 504.724C475.052 502.372 474.107 499.189 474.107 494.9H466.107ZM470.123 509.351C472.603 512.699 475.875 516.134 479.871 519.659L485.164 513.661C481.453 510.386 478.605 507.361 476.552 504.589L470.123 509.351ZM479.878 519.666L493.818 531.906L499.097 525.894L485.157 513.654L479.878 519.666ZM493.844 531.929C499.325 536.657 503.996 542.08 507.865 548.206L514.629 543.934C510.339 537.14 505.15 531.116 499.07 525.871L493.844 531.929ZM507.91 548.275C511.579 553.828 513.537 560.891 513.537 569.7H521.537C521.537 559.696 519.303 551.006 514.585 543.865L507.91 548.275ZM513.537 569.7C513.537 575.526 512.216 580.676 509.635 585.242L516.6 589.178C519.912 583.318 521.537 576.794 521.537 569.7H513.537ZM509.635 585.242C507.059 589.8 503.462 593.355 498.771 595.95L502.644 602.95C508.606 599.652 513.283 595.046 516.6 589.178L509.635 585.242ZM498.739 595.968C494.232 598.515 488.76 599.87 482.177 599.87V607.87C489.874 607.87 496.756 606.278 502.676 602.932L498.739 595.968ZM532.308 602H528.308V606H532.308V602ZM532.308 464.3V460.3H528.308V464.3H532.308ZM592.318 464.3H596.318V460.3H592.318V464.3ZM592.318 483.68V487.68H596.318V483.68H592.318ZM560.358 483.68V479.68H556.358V483.68H560.358ZM560.358 520.23H556.358V524.23H560.358V520.23ZM585.008 520.23H589.008V516.23H585.008V520.23ZM585.008 539.78V543.78H589.008V539.78H585.008ZM560.358 539.78V535.78H556.358V539.78H560.358ZM560.358 582.96H556.358V586.96H560.358V582.96ZM592.658 582.96H596.658V578.96H592.658V582.96ZM592.658 602V606H596.658V602H592.658ZM536.308 602V464.3H528.308V602H536.308ZM532.308 468.3H592.318V460.3H532.308V468.3ZM588.318 464.3V483.68H596.318V464.3H588.318ZM592.318 479.68H560.358V487.68H592.318V479.68ZM556.358 483.68V520.23H564.358V483.68H556.358ZM560.358 524.23H585.008V516.23H560.358V524.23ZM581.008 520.23V539.78H589.008V520.23H581.008ZM585.008 535.78H560.358V543.78H585.008V535.78ZM556.358 539.78V582.96H564.358V539.78H556.358ZM560.358 586.96H592.658V578.96H560.358V586.96ZM588.658 582.96V602H596.658V582.96H588.658ZM592.658 598H532.308V606H592.658V598ZM606.849 602H602.849V606H606.849V602ZM606.849 464.3V460.3H602.849V464.3H606.849ZM658.359 465.83L659.143 461.908L659.143 461.908L658.359 465.83ZM671.789 471.27L669.547 474.583L669.569 474.598L669.592 474.613L671.789 471.27ZM680.799 482.15L677.136 483.758L677.16 483.812L677.185 483.866L680.799 482.15ZM681.649 514.28L685.347 515.803L685.355 515.784L685.362 515.766L681.649 514.28ZM674.849 523.46L677.287 526.63L677.287 526.63L674.849 523.46ZM663.969 528.05L663.244 524.116L663.379 532.006L663.969 528.05ZM677.399 533.49L674.936 536.642L674.936 536.642L677.399 533.49ZM685.559 544.71L689.285 543.256L689.285 543.256L685.559 544.71ZM685.559 579.56L681.79 578.22L681.776 578.257L681.764 578.295L685.559 579.56ZM677.909 592.14L680.689 595.016L680.689 595.016L677.909 592.14ZM665.329 599.62L666.541 603.432L666.58 603.419L666.619 603.406L665.329 599.62ZM634.899 582.28H630.899V586.28H634.899V582.28ZM657.169 577.01L654.006 574.561L653.981 574.594L653.956 574.627L657.169 577.01ZM659.379 548.28L655.639 549.699L655.647 549.721L655.656 549.743L659.379 548.28ZM653.259 541.14L651.243 544.595L651.327 544.644L651.413 544.689L653.259 541.14ZM634.899 538.76V534.76H630.899V538.76H634.899ZM634.899 519.89H630.899V523.89H634.899V519.89ZM652.919 517.85L654.834 521.362L654.894 521.329L654.953 521.294L652.919 517.85ZM658.019 511.39L654.239 510.082L654.223 510.126L654.209 510.171L658.019 511.39ZM657.339 490.65L653.792 492.5L653.841 492.594L653.895 492.685L657.339 490.65ZM650.879 485.04L649.393 488.754L649.418 488.764L649.443 488.773L650.879 485.04ZM634.899 483.34V479.34H630.899V483.34H634.899ZM610.849 602V464.3H602.849V602H610.849ZM606.849 468.3H641.699V460.3H606.849V468.3ZM641.699 468.3C647.481 468.3 652.768 468.791 657.574 469.752L659.143 461.908C653.749 460.829 647.929 460.3 641.699 460.3V468.3ZM657.574 469.752C662.214 470.68 666.183 472.308 669.547 474.583L674.03 467.957C669.687 465.019 664.703 463.02 659.143 461.908L657.574 469.752ZM669.592 474.613C672.867 476.765 675.384 479.768 677.136 483.758L684.461 480.542C682.133 475.239 678.643 470.988 673.985 467.927L669.592 474.613ZM677.185 483.866C678.993 487.672 680.029 492.971 680.029 500H688.029C688.029 492.295 686.91 485.694 684.412 480.434L677.185 483.866ZM680.029 500C680.029 505.19 679.285 509.419 677.935 512.794L685.362 515.766C687.185 511.208 688.029 505.917 688.029 500H680.029ZM677.95 512.757C676.598 516.04 674.734 518.502 672.41 520.29L677.287 526.63C680.857 523.885 683.526 520.226 685.347 515.803L677.95 512.757ZM672.41 520.29C670.048 522.106 667.037 523.417 663.244 524.116L664.693 531.984C669.513 531.096 673.756 529.347 677.287 526.63L672.41 520.29ZM663.379 532.006C668.14 532.715 671.94 534.302 674.936 536.642L679.861 530.338C675.604 527.012 670.451 524.971 664.558 524.094L663.379 532.006ZM674.936 536.642C677.949 538.996 680.257 542.129 681.832 546.164L689.285 543.256C687.233 537.998 684.101 533.65 679.861 530.338L674.936 536.642ZM681.832 546.164C683.417 550.226 684.279 555.315 684.279 561.54H692.279C692.279 554.619 691.326 548.487 689.285 543.256L681.832 546.164ZM684.279 561.54C684.279 568.117 683.414 573.651 681.79 578.22L689.327 580.9C691.329 575.269 692.279 568.789 692.279 561.54H684.279ZM681.764 578.295C680.239 582.869 678.006 586.483 675.128 589.264L680.689 595.016C684.612 591.224 687.478 586.451 689.353 580.825L681.764 578.295ZM675.128 589.264C672.198 592.097 668.531 594.302 664.038 595.834L666.619 603.406C672.099 601.538 676.819 598.757 680.689 595.016L675.128 589.264ZM664.116 595.808C659.607 597.243 654.251 598 647.989 598V606C654.873 606 661.077 605.17 666.541 603.432L664.116 595.808ZM647.989 598H606.849V606H647.989V598ZM634.899 586.28H642.719V578.28H634.899V586.28ZM642.719 586.28C650.237 586.28 656.654 584.417 660.381 579.393L653.956 574.627C652.47 576.63 649.253 578.28 642.719 578.28V586.28ZM660.331 579.459C663.829 574.941 665.249 568.632 665.249 561.2H657.249C657.249 567.822 655.948 572.053 654.006 574.561L660.331 579.459ZM665.249 561.2C665.249 555.522 664.608 550.651 663.102 546.817L655.656 549.743C656.643 552.256 657.249 555.998 657.249 561.2H665.249ZM663.119 546.861C661.561 542.756 658.899 539.565 655.104 537.591L651.413 544.689C653.284 545.662 654.702 547.231 655.639 549.699L663.119 546.861ZM655.274 537.685C651.718 535.611 647.249 534.76 642.209 534.76V542.76C646.461 542.76 649.359 543.496 651.243 544.595L655.274 537.685ZM642.209 534.76H634.899V542.76H642.209V534.76ZM630.899 538.76V582.28H638.899V538.76H630.899ZM634.899 523.89H641.869V515.89H634.899V523.89ZM641.869 523.89C646.993 523.89 651.472 523.196 654.834 521.362L651.003 514.338C649.379 515.224 646.49 515.89 641.869 515.89V523.89ZM654.953 521.294C658.316 519.307 660.632 516.349 661.828 512.609L654.209 510.171C653.592 512.098 652.508 513.447 650.884 514.406L654.953 521.294ZM661.798 512.698C663.005 509.214 663.549 505.175 663.549 500.68H655.549C655.549 504.572 655.072 507.673 654.239 510.082L661.798 512.698ZM663.549 500.68C663.549 496.072 662.747 491.941 660.782 488.615L653.895 492.685C654.876 494.346 655.549 496.901 655.549 500.68H663.549ZM660.885 488.8C659.039 485.263 656.098 482.762 652.314 481.307L649.443 488.773C651.553 489.585 652.918 490.824 653.792 492.5L660.885 488.8ZM652.364 481.326C648.897 479.939 644.718 479.34 639.999 479.34V487.34C644.119 487.34 647.194 487.874 649.393 488.754L652.364 481.326ZM639.999 479.34H634.899V487.34H639.999V479.34ZM630.899 483.34V519.89H638.899V483.34H630.899ZM718.916 598.6L716.79 601.988L716.814 602.003L716.838 602.018L718.916 598.6ZM706.676 583.13L702.881 584.395L702.894 584.433L702.907 584.471L706.676 583.13ZM703.276 464.3V460.3H699.276V464.3H703.276ZM730.986 464.3H734.986V460.3H730.986V464.3ZM731.666 572.42L727.703 572.967L727.712 573.033L727.724 573.1L731.666 572.42ZM735.066 580.41L731.993 582.971L732.034 583.02L732.076 583.067L735.066 580.41ZM751.386 580.41L748.396 577.753L748.354 577.8L748.313 577.849L751.386 580.41ZM755.466 464.3V460.3H751.466V464.3H755.466ZM783.176 464.3H787.176V460.3H783.176V464.3ZM779.606 583.13L775.83 581.809L775.824 581.827L775.817 581.846L779.606 583.13ZM767.536 598.6L769.613 602.018L769.638 602.003L769.662 601.988L767.536 598.6ZM743.226 599.87C733.167 599.87 725.895 598.162 720.993 595.182L716.838 602.018C723.496 606.065 732.431 607.87 743.226 607.87V599.87ZM721.042 595.212C716.056 592.084 712.535 587.664 710.444 581.789L702.907 584.471C705.576 591.969 710.215 597.863 716.79 601.988L721.042 595.212ZM710.47 581.865C708.377 575.586 707.276 567.821 707.276 558.48H699.276C699.276 568.405 700.441 577.074 702.881 584.395L710.47 581.865ZM707.276 558.48V464.3H699.276V558.48H707.276ZM703.276 468.3H730.986V460.3H703.276V468.3ZM726.986 464.3V562.39H734.986V464.3H726.986ZM726.986 562.39C726.986 565.968 727.224 569.494 727.703 572.967L735.628 571.873C735.2 568.772 734.986 565.612 734.986 562.39H726.986ZM727.724 573.1C728.38 576.904 729.742 580.269 731.993 582.971L738.139 577.849C736.99 576.471 736.085 574.509 735.608 571.74L727.724 573.1ZM732.076 583.067C734.877 586.218 738.852 587.47 743.226 587.47V579.47C740.346 579.47 738.881 578.682 738.055 577.753L732.076 583.067ZM743.226 587.47C747.647 587.47 751.725 586.251 754.459 582.971L748.313 577.849C747.646 578.649 746.284 579.47 743.226 579.47V587.47ZM754.375 583.067C756.819 580.319 758.21 576.867 758.748 572.967L750.823 571.873C750.455 574.547 749.579 576.421 748.396 577.753L754.375 583.067ZM758.748 572.967C759.227 569.494 759.466 565.968 759.466 562.39H751.466C751.466 565.612 751.251 568.772 750.823 571.873L758.748 572.967ZM759.466 562.39V464.3H751.466V562.39H759.466ZM755.466 468.3H783.176V460.3H755.466V468.3ZM779.176 464.3V558.48H787.176V464.3H779.176ZM779.176 558.48C779.176 567.806 778.021 575.549 775.83 581.809L783.381 584.451C785.95 577.111 787.176 568.421 787.176 558.48H779.176ZM775.817 581.846C773.835 587.694 770.381 592.092 765.41 595.212L769.662 601.988C776.25 597.854 780.843 591.94 783.394 584.414L775.817 581.846ZM765.458 595.182C760.556 598.162 753.285 599.87 743.226 599.87V607.87C754.02 607.87 762.955 606.065 769.613 602.018L765.458 595.182ZM802.747 602H798.747V606H802.747V602ZM802.747 464.3V460.3H798.747V464.3H802.747ZM862.247 467.53L861.002 471.331L861.041 471.344L861.08 471.356L862.247 467.53ZM877.547 478.58L874.208 480.782L874.224 480.807L874.241 480.831L877.547 478.58ZM881.457 515.81L877.559 514.911L877.551 514.948L877.543 514.986L881.457 515.81ZM876.357 527.2L873.17 524.782L873.164 524.791L873.157 524.8L876.357 527.2ZM866.157 534.85L864.559 531.183L861.355 532.579L862.309 535.941L866.157 534.85ZM885.197 602V606H890.489L889.045 600.909L885.197 602ZM856.467 602L852.59 602.983L853.354 606H856.467V602ZM840.657 539.61L844.534 538.627L843.77 535.61H840.657V539.61ZM830.797 539.61V535.61H826.797V539.61H830.797ZM830.797 602V606H834.797V602H830.797ZM830.797 522.95H826.797V526.95H830.797V522.95ZM849.667 520.74L851.635 524.222L851.635 524.222L849.667 520.74ZM855.107 514.11L851.356 512.721L851.341 512.761L851.327 512.802L855.107 514.11ZM853.237 488.44L849.909 490.659L849.952 490.723L849.997 490.786L853.237 488.44ZM830.797 483.34V479.34H826.797V483.34H830.797ZM806.747 602V464.3H798.747V602H806.747ZM802.747 468.3H838.447V460.3H802.747V468.3ZM838.447 468.3C847.453 468.3 854.942 469.346 861.002 471.331L863.492 463.729C856.406 461.407 848.028 460.3 838.447 460.3V468.3ZM861.08 471.356C866.967 473.152 871.257 476.309 874.208 480.782L880.886 476.378C876.81 470.197 870.901 465.988 863.414 463.704L861.08 471.356ZM874.241 480.831C877.252 485.254 878.987 491.726 878.987 500.68H886.987C886.987 490.821 885.096 482.56 880.853 476.329L874.241 480.831ZM878.987 500.68C878.987 506.115 878.497 510.848 877.559 514.911L885.355 516.709C886.457 511.932 886.987 506.578 886.987 500.68H878.987ZM877.543 514.986C876.75 518.754 875.283 521.998 873.17 524.782L879.544 529.618C882.418 525.829 884.351 521.48 885.371 516.634L877.543 514.986ZM873.157 524.8C871.273 527.312 868.48 529.474 864.559 531.183L867.755 538.517C872.674 536.373 876.681 533.435 879.557 529.6L873.157 524.8ZM862.309 535.941L881.349 603.091L889.045 600.909L870.005 533.759L862.309 535.941ZM885.197 598H856.467V606H885.197V598ZM860.344 601.017L844.534 538.627L836.78 540.593L852.59 602.983L860.344 601.017ZM840.657 535.61H830.797V543.61H840.657V535.61ZM826.797 539.61V602H834.797V539.61H826.797ZM830.797 598H802.747V606H830.797V598ZM830.797 526.95H838.957V518.95H830.797V526.95ZM838.957 526.95C843.854 526.95 848.197 526.166 851.635 524.222L847.699 517.258C845.924 518.261 843.127 518.95 838.957 518.95V526.95ZM851.635 524.222C855.128 522.248 857.562 519.245 858.887 515.418L851.327 512.802C850.611 514.869 849.419 516.285 847.699 517.258L851.635 524.222ZM858.858 515.499C860.203 511.868 860.807 507.627 860.807 502.89H852.807C852.807 506.993 852.278 510.232 851.356 512.721L858.858 515.499ZM860.807 502.89C860.807 496.143 859.559 490.35 856.477 486.094L849.997 490.786C851.675 493.103 852.807 496.943 852.807 502.89H860.807ZM856.565 486.221C853.212 481.191 847.229 479.34 840.317 479.34V487.34C846.098 487.34 848.729 488.889 849.909 490.659L856.565 486.221ZM840.317 479.34H830.797V487.34H840.317V479.34ZM826.797 483.34V522.95H834.797V483.34H826.797ZM913.952 598.26L911.596 601.492L911.618 601.508L911.64 601.524L913.952 598.26ZM902.222 581.6L898.404 582.793L898.416 582.829L898.427 582.865L902.222 581.6ZM902.392 484.87L906.187 486.135L906.187 486.135L902.392 484.87ZM914.802 468.38L912.642 465.013L912.628 465.023L912.613 465.032L914.802 468.38ZM962.402 467.53L960.395 470.99L960.41 470.999L960.425 471.007L962.402 467.53ZM974.812 481.47L978.507 479.936L978.507 479.936L974.812 481.47ZM978.552 510.88V514.88H982.552V510.88H978.552ZM951.182 510.88H947.182V514.88H951.182V510.88ZM950.502 491.67L946.552 492.302L946.554 492.315L946.557 492.328L950.502 491.67ZM947.272 485.04L944.444 487.868L944.493 487.917L944.543 487.964L947.272 485.04ZM931.292 485.55L928.293 482.903L928.293 482.904L931.292 485.55ZM928.062 493.03L932.016 493.638L932.017 493.627L932.019 493.616L928.062 493.03ZM928.402 573.95L924.497 574.818L924.497 574.818L928.402 573.95ZM932.142 581.09L929.406 584.008L929.45 584.049L929.496 584.089L932.142 581.09ZM948.462 580.92L951.204 583.833L951.204 583.833L948.462 580.92ZM952.372 573.61L948.492 572.64L948.479 572.691L948.467 572.742L952.372 573.61ZM953.562 548.28H957.562V544.28H953.562V548.28ZM940.132 548.28H936.132V552.28H940.132V548.28ZM940.132 531.28V527.28H936.132V531.28H940.132ZM978.892 531.28H982.892V527.28H978.892V531.28ZM978.892 602V606H982.892V602H978.892ZM960.532 602L956.569 602.543L957.043 606H960.532V602ZM958.832 589.59L962.795 589.047L960.85 574.846L955.161 588.002L958.832 589.59ZM950.672 599.96L948.272 596.76L948.272 596.76L950.672 599.96ZM936.052 600.04C927.27 600.04 920.809 598.215 916.264 594.996L911.64 601.524C917.975 606.012 926.247 608.04 936.052 608.04V600.04ZM916.309 595.028C911.619 591.609 908.166 586.783 906.017 580.335L898.427 582.865C901.038 590.697 905.405 596.978 911.596 601.492L916.309 595.028ZM906.04 580.407C903.92 573.623 902.822 565.653 902.822 556.44H894.822C894.822 566.267 895.991 575.07 898.404 582.793L906.04 580.407ZM902.822 556.44V510.37H894.822V556.44H902.822ZM902.822 510.37C902.822 500.814 903.978 492.763 906.187 486.135L898.597 483.605C896.047 491.257 894.822 500.206 894.822 510.37H902.822ZM906.187 486.135C908.303 479.787 911.906 475.053 916.991 471.728L912.613 465.032C905.911 469.414 901.242 475.673 898.597 483.605L906.187 486.135ZM916.962 471.747C922.104 468.448 929.365 466.6 939.112 466.6V458.6C928.459 458.6 919.514 460.605 912.642 465.013L916.962 471.747ZM939.112 466.6C948.597 466.6 955.571 468.192 960.395 470.99L964.409 464.07C957.9 460.295 949.348 458.6 939.112 458.6V466.6ZM960.425 471.007C965.451 473.865 968.973 477.837 971.118 483.004L978.507 479.936C975.664 473.09 970.913 467.768 964.379 464.053L960.425 471.007ZM971.118 483.004C973.363 488.411 974.552 495.005 974.552 502.89H982.552C982.552 494.228 981.248 486.542 978.507 479.936L971.118 483.004ZM974.552 502.89V510.88H982.552V502.89H974.552ZM978.552 506.88H951.182V514.88H978.552V506.88ZM955.182 510.88V501.19H947.182V510.88H955.182ZM955.182 501.19C955.182 497.407 954.947 494.005 954.448 491.012L946.557 492.328C946.964 494.775 947.182 497.719 947.182 501.19H955.182ZM954.452 491.038C953.892 487.537 952.492 484.44 950.001 482.116L944.543 487.964C945.452 488.813 946.206 490.137 946.552 492.302L954.452 491.038ZM950.101 482.212C947.414 479.525 943.513 478.66 939.452 478.66V486.66C942.644 486.66 943.957 487.382 944.444 487.868L950.101 482.212ZM939.452 478.66C935.098 478.66 931.045 479.784 928.293 482.903L934.292 488.196C934.939 487.463 936.326 486.66 939.452 486.66V478.66ZM928.293 482.904C925.985 485.519 924.649 488.777 924.105 492.444L932.019 493.616C932.382 491.163 933.199 489.434 934.292 488.196L928.293 482.904ZM924.109 492.422C923.62 495.595 923.382 498.974 923.382 502.55H931.382C931.382 499.326 931.597 496.358 932.016 493.638L924.109 492.422ZM923.382 502.55V563.58H931.382V502.55H923.382ZM923.382 563.58C923.382 567.661 923.742 571.417 924.497 574.818L932.307 573.082C931.703 570.363 931.382 567.205 931.382 563.58H923.382ZM924.497 574.818C925.306 578.458 926.869 581.63 929.406 584.008L934.878 578.172C933.788 577.15 932.858 575.562 932.307 573.082L924.497 574.818ZM929.496 584.089C932.384 586.638 936.174 587.64 940.302 587.64V579.64C937.404 579.64 935.754 578.942 934.789 578.091L929.496 584.089ZM940.302 587.64C944.492 587.64 948.318 586.548 951.204 583.833L945.721 578.007C944.753 578.918 943.139 579.64 940.302 579.64V587.64ZM951.204 583.833C953.816 581.375 955.456 578.173 956.277 574.478L948.467 572.742C947.929 575.167 946.962 576.839 945.721 578.007L951.204 583.833ZM956.253 574.58C957.14 571.031 957.562 567.127 957.562 562.9H949.562C949.562 566.606 949.191 569.843 948.492 572.64L956.253 574.58ZM957.562 562.9V548.28H949.562V562.9H957.562ZM953.562 544.28H940.132V552.28H953.562V544.28ZM944.132 548.28V531.28H936.132V548.28H944.132ZM940.132 535.28H978.892V527.28H940.132V535.28ZM974.892 531.28V602H982.892V531.28H974.892ZM978.892 598H960.532V606H978.892V598ZM964.495 601.457L962.795 589.047L954.869 590.133L956.569 602.543L964.495 601.457ZM955.161 588.002C953.621 591.562 951.337 594.461 948.272 596.76L953.072 603.16C957.26 600.019 960.416 596.005 962.504 591.178L955.161 588.002ZM948.272 596.76C945.544 598.806 941.606 600.04 936.052 600.04V608.04C942.738 608.04 948.547 606.554 953.072 603.16L948.272 596.76ZM1012.6 598.6L1010.47 601.988L1010.5 602.003L1010.52 602.018L1012.6 598.6ZM1000.36 583.13L996.563 584.395L996.575 584.433L996.589 584.471L1000.36 583.13ZM996.957 464.3V460.3H992.957V464.3H996.957ZM1024.67 464.3H1028.67V460.3H1024.67V464.3ZM1025.35 572.42L1021.38 572.967L1021.39 573.033L1021.41 573.1L1025.35 572.42ZM1028.75 580.41L1025.67 582.971L1025.72 583.02L1025.76 583.067L1028.75 580.41ZM1045.07 580.41L1042.08 577.753L1042.04 577.8L1041.99 577.849L1045.07 580.41ZM1049.15 464.3V460.3H1045.15V464.3H1049.15ZM1076.86 464.3H1080.86V460.3H1076.86V464.3ZM1073.29 583.13L1069.51 581.809L1069.51 581.827L1069.5 581.846L1073.29 583.13ZM1061.22 598.6L1063.3 602.018L1063.32 602.003L1063.34 601.988L1061.22 598.6ZM1036.91 599.87C1026.85 599.87 1019.58 598.162 1014.68 595.182L1010.52 602.018C1017.18 606.065 1026.11 607.87 1036.91 607.87V599.87ZM1014.72 595.212C1009.74 592.084 1006.22 587.664 1004.13 581.789L996.589 584.471C999.258 591.969 1003.9 597.863 1010.47 601.988L1014.72 595.212ZM1004.15 581.865C1002.06 575.586 1000.96 567.821 1000.96 558.48H992.957C992.957 568.405 994.122 577.074 996.563 584.395L1004.15 581.865ZM1000.96 558.48V464.3H992.957V558.48H1000.96ZM996.957 468.3H1024.67V460.3H996.957V468.3ZM1020.67 464.3V562.39H1028.67V464.3H1020.67ZM1020.67 562.39C1020.67 565.968 1020.91 569.494 1021.38 572.967L1029.31 571.873C1028.88 568.772 1028.67 565.612 1028.67 562.39H1020.67ZM1021.41 573.1C1022.06 576.904 1023.42 580.269 1025.67 582.971L1031.82 577.849C1030.67 576.471 1029.77 574.509 1029.29 571.74L1021.41 573.1ZM1025.76 583.067C1028.56 586.218 1032.53 587.47 1036.91 587.47V579.47C1034.03 579.47 1032.56 578.682 1031.74 577.753L1025.76 583.067ZM1036.91 587.47C1041.33 587.47 1045.41 586.251 1048.14 582.971L1041.99 577.849C1041.33 578.649 1039.97 579.47 1036.91 579.47V587.47ZM1048.06 583.067C1050.5 580.319 1051.89 576.867 1052.43 572.967L1044.5 571.873C1044.14 574.547 1043.26 576.421 1042.08 577.753L1048.06 583.067ZM1052.43 572.967C1052.91 569.494 1053.15 565.968 1053.15 562.39H1045.15C1045.15 565.612 1044.93 568.772 1044.5 571.873L1052.43 572.967ZM1053.15 562.39V464.3H1045.15V562.39H1053.15ZM1049.15 468.3H1076.86V460.3H1049.15V468.3ZM1072.86 464.3V558.48H1080.86V464.3H1072.86ZM1072.86 558.48C1072.86 567.806 1071.7 575.549 1069.51 581.809L1077.06 584.451C1079.63 577.111 1080.86 568.421 1080.86 558.48H1072.86ZM1069.5 581.846C1067.52 587.694 1064.06 592.092 1059.09 595.212L1063.34 601.988C1069.93 597.854 1074.52 591.94 1077.08 584.414L1069.5 581.846ZM1059.14 595.182C1054.24 598.162 1046.97 599.87 1036.91 599.87V607.87C1047.7 607.87 1056.64 606.065 1063.3 602.018L1059.14 595.182ZM1096.43 602H1092.43V606H1096.43V602ZM1096.43 464.3V460.3H1092.43V464.3H1096.43ZM1156.44 464.3H1160.44V460.3H1156.44V464.3ZM1156.44 483.68V487.68H1160.44V483.68H1156.44ZM1124.48 483.68V479.68H1120.48V483.68H1124.48ZM1124.48 520.23H1120.48V524.23H1124.48V520.23ZM1149.13 520.23H1153.13V516.23H1149.13V520.23ZM1149.13 539.78V543.78H1153.13V539.78H1149.13ZM1124.48 539.78V535.78H1120.48V539.78H1124.48ZM1124.48 582.96H1120.48V586.96H1124.48V582.96ZM1156.78 582.96H1160.78V578.96H1156.78V582.96ZM1156.78 602V606H1160.78V602H1156.78ZM1100.43 602V464.3H1092.43V602H1100.43ZM1096.43 468.3H1156.44V460.3H1096.43V468.3ZM1152.44 464.3V483.68H1160.44V464.3H1152.44ZM1156.44 479.68H1124.48V487.68H1156.44V479.68ZM1120.48 483.68V520.23H1128.48V483.68H1120.48ZM1124.48 524.23H1149.13V516.23H1124.48V524.23ZM1145.13 520.23V539.78H1153.13V520.23H1145.13ZM1149.13 535.78H1124.48V543.78H1149.13V535.78ZM1120.48 539.78V582.96H1128.48V539.78H1120.48ZM1124.48 586.96H1156.78V578.96H1124.48V586.96ZM1152.78 582.96V602H1160.78V582.96H1152.78ZM1156.78 598H1096.43V606H1156.78V598ZM1170.97 602H1166.97V606H1170.97V602ZM1170.97 464.3V460.3H1166.97V464.3H1170.97ZM1230.47 467.53L1229.22 471.331L1229.26 471.344L1229.3 471.356L1230.47 467.53ZM1245.77 478.58L1242.43 480.782L1242.45 480.807L1242.46 480.831L1245.77 478.58ZM1249.68 515.81L1245.78 514.911L1245.77 514.948L1245.77 514.986L1249.68 515.81ZM1244.58 527.2L1241.39 524.782L1241.39 524.791L1241.38 524.8L1244.58 527.2ZM1234.38 534.85L1232.78 531.183L1229.58 532.579L1230.53 535.941L1234.38 534.85ZM1253.42 602V606H1258.71L1257.27 600.909L1253.42 602ZM1224.69 602L1220.81 602.983L1221.58 606H1224.69V602ZM1208.88 539.61L1212.76 538.627L1211.99 535.61H1208.88V539.61ZM1199.02 539.61V535.61H1195.02V539.61H1199.02ZM1199.02 602V606H1203.02V602H1199.02ZM1199.02 522.95H1195.02V526.95H1199.02V522.95ZM1217.89 520.74L1219.86 524.222L1219.86 524.222L1217.89 520.74ZM1223.33 514.11L1219.58 512.721L1219.56 512.761L1219.55 512.802L1223.33 514.11ZM1221.46 488.44L1218.13 490.659L1218.17 490.723L1218.22 490.786L1221.46 488.44ZM1199.02 483.34V479.34H1195.02V483.34H1199.02ZM1174.97 602V464.3H1166.97V602H1174.97ZM1170.97 468.3H1206.67V460.3H1170.97V468.3ZM1206.67 468.3C1215.68 468.3 1223.16 469.346 1229.22 471.331L1231.71 463.729C1224.63 461.407 1216.25 460.3 1206.67 460.3V468.3ZM1229.3 471.356C1235.19 473.152 1239.48 476.309 1242.43 480.782L1249.11 476.378C1245.03 470.197 1239.12 465.988 1231.64 463.704L1229.3 471.356ZM1242.46 480.831C1245.47 485.254 1247.21 491.726 1247.21 500.68H1255.21C1255.21 490.821 1253.32 482.56 1249.08 476.329L1242.46 480.831ZM1247.21 500.68C1247.21 506.115 1246.72 510.848 1245.78 514.911L1253.58 516.709C1254.68 511.932 1255.21 506.578 1255.21 500.68H1247.21ZM1245.77 514.986C1244.97 518.754 1243.51 521.998 1241.39 524.782L1247.77 529.618C1250.64 525.829 1252.57 521.48 1253.59 516.634L1245.77 514.986ZM1241.38 524.8C1239.5 527.312 1236.7 529.474 1232.78 531.183L1235.98 538.517C1240.9 536.373 1244.9 533.435 1247.78 529.6L1241.38 524.8ZM1230.53 535.941L1249.57 603.091L1257.27 600.909L1238.23 533.759L1230.53 535.941ZM1253.42 598H1224.69V606H1253.42V598ZM1228.57 601.017L1212.76 538.627L1205 540.593L1220.81 602.983L1228.57 601.017ZM1208.88 535.61H1199.02V543.61H1208.88V535.61ZM1195.02 539.61V602H1203.02V539.61H1195.02ZM1199.02 598H1170.97V606H1199.02V598ZM1199.02 526.95H1207.18V518.95H1199.02V526.95ZM1207.18 526.95C1212.08 526.95 1216.42 526.166 1219.86 524.222L1215.92 517.258C1214.15 518.261 1211.35 518.95 1207.18 518.95V526.95ZM1219.86 524.222C1223.35 522.248 1225.79 519.245 1227.11 515.418L1219.55 512.802C1218.83 514.869 1217.64 516.285 1215.92 517.258L1219.86 524.222ZM1227.08 515.499C1228.43 511.868 1229.03 507.627 1229.03 502.89H1221.03C1221.03 506.993 1220.5 510.232 1219.58 512.721L1227.08 515.499ZM1229.03 502.89C1229.03 496.143 1227.78 490.35 1224.7 486.094L1218.22 490.786C1219.9 493.103 1221.03 496.943 1221.03 502.89H1229.03ZM1224.79 486.221C1221.43 481.191 1215.45 479.34 1208.54 479.34V487.34C1214.32 487.34 1216.95 488.889 1218.13 490.659L1224.79 486.221ZM1208.54 479.34H1199.02V487.34H1208.54V479.34ZM1195.02 483.34V522.95H1203.02V483.34H1195.02Z" fill="black"/>
<path d="M554.511 668.522C555.36 668.522 555.976 668.874 556.356 669.577C556.767 670.251 556.972 671.027 556.972 671.906C556.972 672.346 556.928 672.727 556.84 673.049C556.752 673.371 556.576 673.679 556.312 673.972C556.049 674.235 555.697 674.499 555.258 674.763C554.818 674.997 554.247 675.261 553.544 675.554C551.903 676.257 550.614 677.106 549.677 678.103C548.739 679.069 548.271 680.036 548.271 681.003C548.271 681.618 548.476 682.204 548.886 682.761C549.296 683.317 549.94 683.815 550.819 684.255C551.698 684.665 552.826 685.002 554.203 685.266C555.609 685.5 557.294 685.617 559.257 685.617C561.278 685.617 563.197 685.383 565.014 684.914C566.83 684.416 568.412 683.728 569.76 682.849C571.137 681.97 572.221 680.93 573.012 679.729C573.832 678.527 574.242 677.224 574.242 675.817C574.242 674.763 573.803 673.664 572.924 672.521C572.045 671.379 570.653 670.192 568.749 668.962C565.38 666.765 562.816 664.992 561.059 663.645C559.33 662.297 558.261 661.447 557.851 661.096C555.653 659.162 554.013 657.302 552.929 655.515C551.845 653.728 551.303 651.867 551.303 649.934C551.303 648.146 551.728 646.403 552.577 644.704C553.456 643.005 554.628 641.408 556.093 639.914C557.558 638.42 559.242 637.043 561.146 635.783C563.08 634.494 565.087 633.396 567.167 632.487C569.276 631.579 571.386 630.876 573.495 630.378C575.634 629.851 577.655 629.587 579.56 629.587C580.995 629.587 582.313 629.748 583.515 630.07C584.745 630.393 585.814 630.905 586.723 631.608C587.631 632.282 588.334 633.161 588.832 634.245C589.359 635.329 589.623 636.633 589.623 638.156C589.623 640.354 588.993 642.448 587.733 644.44C586.474 646.433 584.555 648.293 581.977 650.021C580.834 650.812 579.779 651.208 578.812 651.208C577.816 651.208 577.025 650.856 576.439 650.153C575.854 649.421 575.561 648.571 575.561 647.604C575.561 646.784 575.795 645.964 576.264 645.144C576.762 644.323 577.553 643.62 578.637 643.034C579.486 642.595 580.233 642.009 580.878 641.276C581.552 640.515 581.889 639.782 581.889 639.079C581.889 638.405 581.654 637.966 581.186 637.761C580.746 637.556 580.204 637.453 579.56 637.453C578.329 637.453 576.981 637.614 575.517 637.937C574.081 638.229 572.631 638.64 571.166 639.167C569.73 639.694 568.324 640.324 566.947 641.057C565.6 641.789 564.398 642.58 563.344 643.43C562.318 644.279 561.483 645.188 560.839 646.154C560.224 647.092 559.916 648.029 559.916 648.967C559.916 649.611 560.048 650.212 560.312 650.769C560.575 651.325 560.956 651.882 561.454 652.438C561.981 652.995 562.611 653.581 563.344 654.196C564.076 654.782 564.926 655.427 565.893 656.13L576.176 663.732C577.494 664.699 578.666 665.651 579.691 666.589C580.746 667.497 581.625 668.42 582.328 669.357C583.031 670.266 583.573 671.188 583.954 672.126C584.335 673.063 584.525 674.06 584.525 675.114C584.525 677.458 583.91 679.758 582.68 682.014C581.479 684.24 579.75 686.232 577.494 687.99C575.268 689.748 572.572 691.169 569.408 692.253C566.273 693.337 562.787 693.879 558.949 693.879C555.375 693.879 552.328 693.586 549.809 693C547.318 692.443 545.268 691.682 543.656 690.715C542.045 689.719 540.873 688.591 540.141 687.331C539.408 686.042 539.042 684.694 539.042 683.288C539.042 681.823 539.408 680.344 540.141 678.85C540.902 677.326 541.957 675.891 543.305 674.543C544.682 673.195 546.322 671.994 548.227 670.939C550.131 669.885 552.226 669.079 554.511 668.522ZM598.764 654.987C598.764 654.313 598.881 653.625 599.115 652.922C599.379 652.189 599.76 651.53 600.258 650.944C600.756 650.358 601.371 649.875 602.104 649.494C602.865 649.113 603.759 648.923 604.784 648.923C606.483 648.923 607.67 649.26 608.344 649.934C609.018 650.578 609.354 651.398 609.354 652.395C609.354 652.951 609.237 653.566 609.003 654.24C608.798 654.914 608.476 655.544 608.036 656.13C607.597 656.687 607.025 657.155 606.322 657.536C605.619 657.917 604.784 658.107 603.817 658.107C602.001 658.107 600.727 657.829 599.994 657.272C599.262 656.687 598.852 655.925 598.764 654.987ZM593.93 664.875C594.428 664.055 594.999 663.469 595.644 663.117C596.288 662.766 596.947 662.59 597.621 662.59C598.734 662.59 599.687 662.956 600.478 663.688C601.298 664.392 601.708 665.3 601.708 666.413C601.679 666.677 601.635 666.94 601.576 667.204C601.547 667.468 601.459 667.731 601.312 667.995C600.902 668.757 600.565 669.401 600.302 669.929C600.038 670.456 599.789 670.954 599.555 671.423C599.35 671.862 599.145 672.302 598.939 672.741C598.734 673.181 598.485 673.708 598.192 674.323C597.841 675.056 597.445 675.861 597.006 676.74C596.566 677.59 596.142 678.469 595.731 679.377C595.351 680.285 595.014 681.179 594.721 682.058C594.457 682.937 594.325 683.742 594.325 684.475C594.325 685.266 594.516 685.793 594.896 686.057C595.307 686.291 595.878 686.408 596.61 686.408C597.431 686.408 598.28 686.232 599.159 685.881C600.067 685.529 600.976 685.075 601.884 684.519C602.792 683.962 603.686 683.332 604.564 682.629C605.443 681.896 606.264 681.164 607.025 680.432C607.816 679.699 608.534 678.996 609.179 678.322C609.853 677.648 610.409 677.048 610.849 676.521C611.435 675.964 612.021 675.686 612.606 675.686C613.134 675.686 613.559 675.92 613.881 676.389C614.232 676.857 614.408 677.458 614.408 678.19C614.408 678.864 614.232 679.582 613.881 680.344C613.559 681.105 613.017 681.823 612.255 682.497C610.761 684.021 609.237 685.485 607.685 686.892C606.132 688.269 604.535 689.499 602.895 690.583C601.283 691.638 599.657 692.487 598.017 693.132C596.376 693.776 594.721 694.099 593.051 694.099C590.678 694.099 588.803 693.498 587.426 692.297C586.078 691.066 585.404 689.162 585.404 686.584C585.404 685.236 585.595 683.918 585.976 682.629C586.356 681.34 586.811 680.095 587.338 678.894C587.865 677.663 588.422 676.491 589.008 675.378C589.594 674.235 590.092 673.151 590.502 672.126C590.648 671.745 590.897 671.159 591.249 670.368C591.63 669.577 592.025 668.771 592.436 667.951C592.904 666.984 593.402 665.959 593.93 664.875ZM616.298 666.325C616.884 665.065 617.616 664.128 618.495 663.513C619.374 662.897 620.238 662.59 621.088 662.59C621.791 662.59 622.421 662.854 622.978 663.381C623.534 663.879 623.812 664.626 623.812 665.622C623.812 666.003 623.769 666.413 623.681 666.853C623.593 667.292 623.432 667.761 623.197 668.259C623.842 667.438 624.765 666.604 625.966 665.754C627.167 664.875 628.485 664.099 629.921 663.425C631.386 662.722 632.88 662.15 634.403 661.711C635.956 661.271 637.421 661.052 638.798 661.052C640.351 661.052 641.64 661.433 642.665 662.194C643.72 662.927 644.247 664.187 644.247 665.974C644.247 667.028 644.086 668.127 643.764 669.27C643.441 670.412 643.017 671.555 642.489 672.697C641.991 673.84 641.42 674.968 640.775 676.081C640.16 677.165 639.545 678.19 638.93 679.157C638.314 680.124 637.743 681.018 637.216 681.838C636.718 682.629 636.322 683.288 636.029 683.815C635.648 684.284 635.458 684.826 635.458 685.441C635.458 685.676 635.531 685.881 635.678 686.057C635.824 686.232 636.059 686.32 636.381 686.32C636.586 686.32 636.82 686.306 637.084 686.276C637.348 686.218 637.67 686.057 638.051 685.793C639.633 685.207 641.244 684.475 642.885 683.596C644.555 682.717 646.151 681.794 647.675 680.827C649.198 679.831 650.59 678.85 651.85 677.883C653.139 676.887 654.208 675.993 655.058 675.202C655.292 674.997 655.526 674.851 655.761 674.763C655.995 674.675 656.215 674.631 656.42 674.631C656.918 674.631 657.299 674.821 657.562 675.202C657.855 675.583 658.002 676.066 658.002 676.652C658.002 677.561 657.709 678.571 657.123 679.685C656.566 680.798 655.673 681.838 654.442 682.805C652.772 684.006 651.234 685.104 649.828 686.101C648.451 687.097 647.03 688.034 645.565 688.913C644.13 689.763 642.577 690.568 640.907 691.33C639.267 692.062 637.333 692.751 635.106 693.396C634.345 693.63 633.642 693.806 632.997 693.923C632.382 694.04 631.811 694.099 631.283 694.099C629.73 694.099 628.588 693.674 627.855 692.824C627.152 691.945 626.801 690.729 626.801 689.177C626.801 688.972 626.801 688.781 626.801 688.605C626.83 688.4 626.859 688.181 626.889 687.946C626.947 687.038 627.182 686.042 627.592 684.958C628.031 683.874 628.544 682.761 629.13 681.618C629.745 680.476 630.39 679.348 631.063 678.234C631.737 677.092 632.353 676.022 632.909 675.026C633.495 674.001 633.979 673.093 634.359 672.302C634.74 671.511 634.931 670.866 634.931 670.368C634.931 669.929 634.799 669.562 634.535 669.27C634.301 668.947 633.935 668.786 633.437 668.786C631.562 668.786 629.774 669.343 628.075 670.456C626.405 671.569 624.838 672.946 623.373 674.587C621.908 676.198 620.561 677.912 619.33 679.729C618.1 681.545 617.016 683.171 616.078 684.606C615.492 685.573 614.95 686.613 614.452 687.727C613.983 688.811 613.485 689.836 612.958 690.803C612.431 691.74 611.83 692.517 611.156 693.132C610.512 693.776 609.691 694.099 608.695 694.099C607.67 694.099 606.864 693.776 606.278 693.132C605.692 692.487 605.399 691.696 605.399 690.759C605.399 690.261 605.604 689.455 606.015 688.342C606.425 687.229 606.952 685.939 607.597 684.475C608.241 683.01 608.959 681.442 609.75 679.772C610.57 678.073 611.376 676.403 612.167 674.763C612.987 673.093 613.764 671.525 614.496 670.061C615.229 668.596 615.829 667.351 616.298 666.325ZM675.888 665.095C675.888 666.003 675.785 667.014 675.58 668.127C675.375 669.211 675.038 670.236 674.569 671.203C674.101 672.17 673.5 672.976 672.768 673.62C672.035 674.265 671.127 674.587 670.043 674.587C669.457 674.587 669.076 674.499 668.9 674.323C668.754 674.147 668.681 673.84 668.681 673.4C668.681 673.137 668.681 672.756 668.681 672.258C668.71 671.73 668.725 671.232 668.725 670.764C668.725 670.236 668.651 669.797 668.505 669.445C668.358 669.064 667.992 668.874 667.406 668.874C666.732 668.874 665.971 669.138 665.121 669.665C664.301 670.163 663.466 670.822 662.616 671.643C661.796 672.463 660.99 673.4 660.199 674.455C659.408 675.48 658.69 676.535 658.046 677.619C657.431 678.674 656.933 679.699 656.552 680.695C656.2 681.691 656.024 682.541 656.024 683.244C656.024 684.27 656.376 685.075 657.079 685.661C657.812 686.247 658.793 686.54 660.023 686.54C661.342 686.54 662.748 686.32 664.242 685.881C665.736 685.441 667.216 684.885 668.681 684.211C670.175 683.537 671.61 682.805 672.987 682.014C674.364 681.223 675.609 680.476 676.723 679.772C677.865 679.04 678.817 678.425 679.579 677.927C680.341 677.399 680.839 677.077 681.073 676.96C681.542 676.726 681.981 676.608 682.392 676.608C682.743 676.608 683.036 676.696 683.271 676.872C683.534 677.019 683.739 677.209 683.886 677.443C684.032 677.648 684.135 677.883 684.193 678.146C684.252 678.381 684.281 678.586 684.281 678.762C684.281 679.025 684.252 679.348 684.193 679.729C684.135 680.08 683.915 680.49 683.534 680.959C683.388 681.135 682.904 681.589 682.084 682.321C681.293 683.024 680.253 683.859 678.964 684.826C677.704 685.793 676.239 686.833 674.569 687.946C672.929 689.03 671.156 690.026 669.252 690.935C667.377 691.843 665.429 692.59 663.407 693.176C661.386 693.791 659.394 694.099 657.431 694.099C655.937 694.099 654.604 693.864 653.432 693.396C652.289 692.927 651.322 692.297 650.531 691.506C649.74 690.686 649.14 689.733 648.729 688.649C648.319 687.565 648.114 686.423 648.114 685.222C648.114 683.903 648.422 682.395 649.037 680.695C649.652 678.967 650.502 677.209 651.586 675.422C652.67 673.635 653.944 671.877 655.409 670.148C656.874 668.42 658.456 666.882 660.155 665.534C661.884 664.187 663.671 663.103 665.517 662.282C667.392 661.462 669.281 661.052 671.186 661.052C671.83 661.052 672.431 661.125 672.987 661.271C673.573 661.418 674.071 661.652 674.481 661.975C674.921 662.268 675.258 662.678 675.492 663.205C675.756 663.732 675.888 664.362 675.888 665.095ZM697.641 667.072C697.494 667.043 697.362 667.028 697.245 667.028C697.128 667.028 696.996 667.028 696.85 667.028C695.736 667.028 694.696 667.248 693.729 667.688C692.763 668.127 691.869 668.713 691.049 669.445C690.258 670.148 689.54 670.954 688.896 671.862C688.28 672.771 687.724 673.679 687.226 674.587C686.728 675.466 686.303 676.315 685.951 677.136C685.629 677.956 685.38 678.645 685.204 679.201C686.229 678.674 687.284 678.073 688.368 677.399C689.481 676.726 690.521 676.081 691.488 675.466C692.455 674.851 693.29 674.294 693.993 673.796C694.726 673.298 695.238 672.961 695.531 672.785C696.85 671.965 697.758 671.203 698.256 670.5C698.754 669.768 699.003 669.138 699.003 668.61C699.003 668.171 698.856 667.819 698.563 667.556C698.3 667.292 697.992 667.131 697.641 667.072ZM699.223 661.008C701.654 661.008 703.471 661.594 704.672 662.766C705.873 663.938 706.474 665.563 706.474 667.644C706.474 668.874 706.151 670.163 705.507 671.511C704.862 672.858 703.749 674.235 702.167 675.642C700.585 677.019 698.461 678.439 695.795 679.904C693.158 681.34 689.848 682.79 685.863 684.255C686.01 685.104 686.464 685.778 687.226 686.276C687.987 686.745 688.998 686.979 690.258 686.979C691.605 686.979 693.041 686.789 694.564 686.408C696.117 685.998 697.641 685.485 699.135 684.87C700.658 684.255 702.138 683.596 703.573 682.893C705.009 682.16 706.298 681.472 707.44 680.827C708.612 680.183 709.579 679.626 710.341 679.157C711.132 678.688 711.659 678.396 711.923 678.278C712.187 678.103 712.421 678 712.626 677.971C712.86 677.941 713.065 677.927 713.241 677.927C713.593 677.927 713.886 678.015 714.12 678.19C714.354 678.337 714.545 678.527 714.691 678.762C714.867 678.967 714.984 679.201 715.043 679.465C715.102 679.699 715.131 679.904 715.131 680.08C715.131 680.344 715.102 680.666 715.043 681.047C714.984 681.398 714.765 681.809 714.384 682.277C714.237 682.424 713.739 682.819 712.89 683.464C712.069 684.108 711 684.87 709.682 685.749C708.363 686.628 706.825 687.565 705.067 688.562C703.339 689.528 701.493 690.422 699.53 691.242C697.597 692.062 695.575 692.736 693.466 693.264C691.356 693.82 689.276 694.099 687.226 694.099C685.468 694.099 683.9 693.762 682.523 693.088C681.176 692.414 680.019 691.506 679.052 690.363C678.114 689.221 677.396 687.902 676.898 686.408C676.4 684.914 676.151 683.347 676.151 681.706C676.151 680.446 676.4 679.069 676.898 677.575C677.396 676.052 678.114 674.528 679.052 673.005C679.989 671.481 681.132 670.002 682.479 668.566C683.856 667.102 685.395 665.812 687.094 664.699C688.793 663.586 690.653 662.692 692.675 662.019C694.726 661.345 696.908 661.008 699.223 661.008ZM738.246 688.737C739.066 687.419 739.813 686.159 740.487 684.958C741.161 683.728 741.791 682.541 742.377 681.398C742.992 680.256 743.578 679.143 744.135 678.059C744.721 676.945 745.321 675.832 745.937 674.719L751.957 663.776C751.576 663.923 750.932 664.172 750.023 664.523C749.145 664.875 748.192 665.256 747.167 665.666C746.171 666.047 745.219 666.413 744.311 666.765C743.432 667.116 742.816 667.351 742.465 667.468C742.377 667.526 742.26 667.57 742.113 667.6C741.996 667.6 741.908 667.6 741.85 667.6C741.381 667.6 740.956 667.409 740.575 667.028C740.224 666.618 740.048 666.091 740.048 665.446C740.048 664.89 740.224 664.274 740.575 663.601C740.927 662.927 741.557 662.224 742.465 661.491C744.428 660.173 746.391 658.986 748.354 657.932C749.174 657.492 750.038 657.067 750.946 656.657C751.854 656.218 752.748 655.837 753.627 655.515C754.535 655.163 755.414 654.885 756.264 654.68C757.143 654.475 757.948 654.372 758.681 654.372C759.53 654.372 760.263 654.606 760.878 655.075C761.522 655.515 761.845 656.291 761.845 657.404C761.845 657.756 761.815 658.166 761.757 658.635C761.698 659.074 761.552 659.543 761.317 660.041C760.878 660.949 760.336 662.121 759.691 663.557C759.076 664.963 758.402 666.516 757.67 668.215C756.938 669.885 756.161 671.657 755.341 673.532C754.55 675.407 753.744 677.253 752.924 679.069C752.133 680.886 751.356 682.629 750.595 684.299C749.833 685.939 749.145 687.39 748.529 688.649C748.09 689.528 747.562 690.305 746.947 690.979C746.361 691.652 745.731 692.224 745.058 692.692C744.413 693.132 743.739 693.469 743.036 693.703C742.333 693.938 741.674 694.055 741.059 694.055C740.121 694.055 739.315 693.806 738.642 693.308C737.997 692.839 737.675 692.121 737.675 691.154C737.675 690.832 737.704 690.451 737.763 690.012C737.821 689.572 737.982 689.147 738.246 688.737ZM798.319 666.589C798.319 666.472 798.319 666.369 798.319 666.281C798.349 666.164 798.363 666.032 798.363 665.886C798.363 664.392 797.865 663.176 796.869 662.238C795.873 661.271 794.525 660.788 792.826 660.788C791.713 660.788 790.585 661.052 789.442 661.579C788.3 662.077 787.187 662.751 786.103 663.601C785.048 664.45 784.037 665.446 783.07 666.589C782.133 667.702 781.312 668.874 780.609 670.104C779.906 671.306 779.35 672.536 778.939 673.796C778.529 675.026 778.324 676.198 778.324 677.312C778.324 678.923 778.705 680.095 779.467 680.827C780.229 681.53 781.239 681.882 782.499 681.882C783.349 681.882 784.286 681.765 785.312 681.53C786.337 681.267 787.392 680.915 788.476 680.476C789.589 680.007 790.702 679.465 791.815 678.85C792.958 678.205 794.057 677.487 795.111 676.696C796.957 672.946 798.026 669.577 798.319 666.589ZM806.361 667.468C806.068 670.163 805.189 673.269 803.725 676.784C802.26 680.3 800.15 683.962 797.396 687.771C794.643 691.579 791.215 695.417 787.113 699.284C783.012 703.181 778.163 706.843 772.567 710.271C772.333 710.505 772.084 710.637 771.82 710.666C771.557 710.695 771.308 710.71 771.073 710.71C770.165 710.71 769.359 710.373 768.656 709.699C767.953 709.025 767.602 708.234 767.602 707.326C767.602 706.828 767.748 706.286 768.041 705.7C768.334 705.114 768.847 704.602 769.579 704.162C772.509 702.404 775.087 700.646 777.313 698.889C779.569 697.131 781.503 695.461 783.114 693.879C784.755 692.297 786.117 690.832 787.201 689.484C788.314 688.137 789.223 686.994 789.926 686.057C788.168 686.818 786.352 687.419 784.477 687.858C782.602 688.269 780.785 688.474 779.027 688.474C777.768 688.474 776.581 688.298 775.468 687.946C774.384 687.565 773.432 686.994 772.611 686.232C771.791 685.441 771.146 684.445 770.678 683.244C770.209 682.014 769.975 680.534 769.975 678.806C769.975 676.579 770.297 674.411 770.941 672.302C771.586 670.163 772.479 668.142 773.622 666.237C774.765 664.333 776.112 662.59 777.665 661.008C779.247 659.426 780.946 658.063 782.763 656.921C784.579 655.749 786.483 654.841 788.476 654.196C790.497 653.552 792.519 653.229 794.54 653.229C796.386 653.229 798.041 653.537 799.506 654.152C800.971 654.768 802.216 655.617 803.241 656.701C804.267 657.785 805.058 659.089 805.614 660.612C806.171 662.106 806.449 663.747 806.449 665.534C806.449 665.856 806.435 666.179 806.405 666.501C806.405 666.823 806.391 667.146 806.361 667.468ZM842.045 681.179C842.045 683.493 841.693 685.617 840.99 687.551C840.287 689.455 839.335 691.198 838.134 692.78C836.933 694.333 835.512 695.725 833.871 696.955C832.26 698.186 830.517 699.27 828.642 700.207C826.767 701.145 824.818 701.936 822.797 702.58C820.775 703.225 818.783 703.752 816.82 704.162C816.352 704.25 815.941 704.323 815.59 704.382C815.238 704.44 814.901 704.47 814.579 704.47C813.466 704.47 812.631 704.235 812.074 703.767C811.547 703.298 811.283 702.741 811.283 702.097C811.283 701.423 811.576 700.734 812.162 700.031C812.748 699.357 813.612 698.859 814.755 698.537C815.956 698.273 817.245 697.878 818.622 697.351C820.028 696.853 821.405 696.237 822.753 695.505C824.13 694.802 825.448 693.967 826.708 693C827.997 692.062 829.125 691.037 830.092 689.924C831.059 688.781 831.835 687.565 832.421 686.276C833.036 684.958 833.358 683.566 833.388 682.102C833.388 681.193 833.212 680.417 832.86 679.772C832.538 679.099 832.084 678.557 831.498 678.146C830.912 677.736 830.224 677.429 829.433 677.224C828.642 677.019 827.777 676.916 826.84 676.916C825.814 676.916 824.745 677.033 823.632 677.268C822.519 677.473 821.405 677.766 820.292 678.146C819.765 678.322 819.296 678.542 818.886 678.806C818.505 679.04 818.139 679.274 817.787 679.509C817.465 679.714 817.157 679.89 816.864 680.036C816.601 680.183 816.322 680.256 816.029 680.256C815.092 680.256 814.345 679.919 813.788 679.245C813.261 678.571 812.997 677.766 812.997 676.828C812.997 676.154 813.144 675.51 813.437 674.895L820.863 658.327C821.186 657.624 821.508 657.023 821.83 656.525C822.152 655.998 822.519 655.588 822.929 655.295C823.368 654.973 823.852 654.738 824.379 654.592C824.906 654.445 825.521 654.372 826.225 654.372H846.923C847.743 654.372 848.373 654.709 848.812 655.383C849.281 656.027 849.516 656.774 849.516 657.624C849.516 658.151 849.413 658.679 849.208 659.206C849.032 659.733 848.739 660.217 848.329 660.656C847.948 661.096 847.436 661.447 846.791 661.711C846.176 661.975 845.443 662.106 844.594 662.106H827.675C826.942 663.571 826.225 664.978 825.521 666.325C824.936 667.468 824.335 668.654 823.72 669.885C823.104 671.086 822.592 672.082 822.182 672.873C823.764 671.877 825.316 671.159 826.84 670.72C828.363 670.251 829.813 670.017 831.19 670.017C832.772 670.017 834.223 670.295 835.541 670.852C836.889 671.379 838.031 672.141 838.969 673.137C839.936 674.133 840.683 675.319 841.21 676.696C841.767 678.044 842.045 679.538 842.045 681.179ZM881.464 685.661C881.581 685.632 881.684 685.617 881.771 685.617C881.859 685.588 881.947 685.573 882.035 685.573C882.65 685.573 883.163 685.808 883.573 686.276C883.983 686.745 884.188 687.316 884.188 687.99C884.188 688.957 883.837 689.821 883.134 690.583C882.46 691.345 881.596 691.989 880.541 692.517C879.486 693.015 878.329 693.396 877.069 693.659C875.81 693.923 874.608 694.055 873.466 694.055C872.528 694.055 871.605 693.996 870.697 693.879C869.789 693.791 868.793 693.586 867.709 693.264C866.625 692.941 865.409 692.473 864.062 691.857C862.714 691.242 861.117 690.422 859.271 689.396C857.543 690.48 856.181 691.33 855.185 691.945C854.218 692.561 853.471 693.015 852.943 693.308C852.416 693.601 852.05 693.776 851.845 693.835C851.64 693.894 851.464 693.923 851.317 693.923C850.966 693.923 850.6 693.806 850.219 693.571C849.867 693.366 849.53 693.088 849.208 692.736C848.886 692.385 848.622 691.989 848.417 691.55C848.212 691.081 848.109 690.598 848.109 690.1C848.109 689.689 848.197 689.279 848.373 688.869C848.578 688.459 848.915 688.093 849.384 687.771C851.317 686.716 853.28 685.603 855.272 684.431C857.265 683.229 859.184 681.984 861.029 680.695C862.875 679.377 864.604 678.029 866.215 676.652C867.826 675.275 869.232 673.898 870.434 672.521C871.635 671.115 872.572 669.724 873.246 668.347C873.949 666.94 874.301 665.563 874.301 664.216C874.301 662.897 873.979 661.975 873.334 661.447C872.689 660.891 871.84 660.612 870.785 660.612C869.936 660.612 869.013 660.759 868.017 661.052C867.05 661.345 866.068 661.726 865.072 662.194C864.076 662.634 863.08 663.117 862.084 663.645C861.117 664.143 860.209 664.626 859.359 665.095C858.539 665.534 857.807 665.9 857.162 666.193C856.518 666.486 856.02 666.633 855.668 666.633C855.199 666.633 854.76 666.53 854.35 666.325C853.939 666.12 853.588 665.856 853.295 665.534C853.002 665.183 852.768 664.802 852.592 664.392C852.445 663.981 852.372 663.557 852.372 663.117C852.372 662.385 852.709 661.638 853.383 660.876C854.057 660.085 854.95 659.323 856.063 658.591C857.177 657.858 858.451 657.17 859.887 656.525C861.322 655.881 862.787 655.31 864.281 654.812C865.805 654.313 867.299 653.933 868.764 653.669C870.258 653.376 871.62 653.229 872.851 653.229C874.286 653.229 875.634 653.42 876.894 653.801C878.183 654.152 879.296 654.738 880.233 655.559C881.171 656.35 881.903 657.404 882.431 658.723C882.987 660.041 883.266 661.652 883.266 663.557C883.266 665.168 883.002 666.779 882.475 668.391C881.977 670.002 881.054 671.672 879.706 673.4C878.358 675.1 876.527 676.857 874.213 678.674C871.928 680.49 868.998 682.409 865.424 684.431C866.684 684.987 868.031 685.456 869.467 685.837C870.902 686.218 872.191 686.408 873.334 686.408C874.184 686.408 874.945 686.394 875.619 686.364C876.293 686.335 876.938 686.291 877.553 686.232C878.168 686.145 878.783 686.057 879.398 685.969C880.014 685.881 880.702 685.778 881.464 685.661Z" fill="#F6FF95"/>
<path d="M682.539 752.898H695.483C698.419 752.898 700.899 753.346 702.922 754.241C704.963 755.136 706.512 756.461 707.568 758.216C708.642 759.952 709.179 762.092 709.179 764.634C709.179 766.425 708.812 768.063 708.078 769.549C707.362 771.017 706.324 772.27 704.963 773.309C703.62 774.329 702.009 775.09 700.129 775.591L698.679 776.155H686.513L686.459 771.939H695.644C697.506 771.939 699.055 771.617 700.29 770.972C701.525 770.31 702.456 769.424 703.083 768.313C703.71 767.203 704.023 765.977 704.023 764.634C704.023 763.13 703.728 761.814 703.137 760.687C702.546 759.559 701.615 758.69 700.344 758.082C699.09 757.455 697.47 757.142 695.483 757.142H687.722V792H682.539V752.898ZM705.393 792L695.886 774.275L701.284 774.249L710.925 791.678V792H705.393Z" fill="#F6FF95"/>
<path d="M723 772.5C723 787.688 710.688 800 695.5 800C680.312 800 668 787.688 668 772.5C668 757.312 680.312 745 695.5 745C710.688 745 723 757.312 723 772.5ZM669.37 772.5C669.37 786.931 681.069 798.63 695.5 798.63C709.931 798.63 721.63 786.931 721.63 772.5C721.63 758.069 709.931 746.37 695.5 746.37C681.069 746.37 669.37 758.069 669.37 772.5Z" fill="#F6FF95"/>
</svg>
